<mxfile host="app.diagrams.net" agent="Mozilla/5.0 (X11; Ubuntu; Linux x86_64; rv:133.0) Gecko/20100101 Firefox/133.0" version="25.0.3">
  <diagram name="Page-1" id="YRTmSyCCs7Myf40diobr">
    <mxGraphModel dx="989" dy="528" grid="1" gridSize="10" guides="1" tooltips="1" connect="1" arrows="1" fold="1" page="1" pageScale="1" pageWidth="850" pageHeight="1100" math="0" shadow="0">
      <root>
        <mxCell id="0" />
        <mxCell id="1" parent="0" />
        <mxCell id="4d7obqWmkYfhOyedHUf7-1" value="FA" style="rounded=0;whiteSpace=wrap;html=1;fontStyle=1" parent="1" vertex="1">
          <mxGeometry x="600" y="120" width="120" height="120" as="geometry" />
        </mxCell>
        <mxCell id="4d7obqWmkYfhOyedHUf7-56" value="CIN" style="edgeStyle=orthogonalEdgeStyle;rounded=0;orthogonalLoop=1;jettySize=auto;html=1;align=left;" parent="1" target="4d7obqWmkYfhOyedHUf7-3" edge="1">
          <mxGeometry x="-1" relative="1" as="geometry">
            <mxPoint x="760" y="180" as="sourcePoint" />
            <Array as="points">
              <mxPoint x="750" y="180" />
              <mxPoint x="750" y="180" />
            </Array>
            <mxPoint as="offset" />
          </mxGeometry>
        </mxCell>
        <mxCell id="4d7obqWmkYfhOyedHUf7-3" value="CIN" style="text;html=1;align=right;verticalAlign=middle;resizable=0;points=[];autosize=1;strokeColor=none;fillColor=none;spacingRight=3;spacingLeft=-9;" parent="1" vertex="1">
          <mxGeometry x="690" y="165" width="30" height="30" as="geometry" />
        </mxCell>
        <mxCell id="4d7obqWmkYfhOyedHUf7-39" style="edgeStyle=orthogonalEdgeStyle;rounded=0;orthogonalLoop=1;jettySize=auto;html=1;" parent="1" source="4d7obqWmkYfhOyedHUf7-4" target="4d7obqWmkYfhOyedHUf7-15" edge="1">
          <mxGeometry relative="1" as="geometry" />
        </mxCell>
        <mxCell id="4d7obqWmkYfhOyedHUf7-4" value="COUT" style="text;html=1;align=left;verticalAlign=middle;resizable=0;points=[];autosize=1;strokeColor=none;fillColor=none;spacingRight=-9;spacingLeft=3;" parent="1" vertex="1">
          <mxGeometry x="600" y="165" width="50" height="30" as="geometry" />
        </mxCell>
        <mxCell id="4d7obqWmkYfhOyedHUf7-55" value="z&lt;sub&gt;0&lt;/sub&gt;" style="edgeStyle=orthogonalEdgeStyle;rounded=0;orthogonalLoop=1;jettySize=auto;html=1;" parent="1" source="4d7obqWmkYfhOyedHUf7-5" edge="1">
          <mxGeometry x="1" y="10" relative="1" as="geometry">
            <mxPoint x="660" y="280" as="targetPoint" />
            <mxPoint x="-10" y="10" as="offset" />
          </mxGeometry>
        </mxCell>
        <mxCell id="4d7obqWmkYfhOyedHUf7-5" value="S" style="text;html=1;align=center;verticalAlign=middle;resizable=0;points=[];autosize=1;strokeColor=none;fillColor=none;spacingRight=3;spacingLeft=3;" parent="1" vertex="1">
          <mxGeometry x="645" y="210" width="30" height="30" as="geometry" />
        </mxCell>
        <mxCell id="4d7obqWmkYfhOyedHUf7-14" value="FA" style="rounded=0;whiteSpace=wrap;html=1;fontStyle=1" parent="1" vertex="1">
          <mxGeometry x="440" y="120" width="120" height="120" as="geometry" />
        </mxCell>
        <mxCell id="4d7obqWmkYfhOyedHUf7-15" value="CIN" style="text;html=1;align=right;verticalAlign=middle;resizable=0;points=[];autosize=1;strokeColor=none;fillColor=none;spacingRight=3;spacingLeft=-9;" parent="1" vertex="1">
          <mxGeometry x="530" y="165" width="30" height="30" as="geometry" />
        </mxCell>
        <mxCell id="4d7obqWmkYfhOyedHUf7-40" style="edgeStyle=orthogonalEdgeStyle;rounded=0;orthogonalLoop=1;jettySize=auto;html=1;" parent="1" source="4d7obqWmkYfhOyedHUf7-16" target="4d7obqWmkYfhOyedHUf7-28" edge="1">
          <mxGeometry relative="1" as="geometry" />
        </mxCell>
        <mxCell id="4d7obqWmkYfhOyedHUf7-16" value="COUT" style="text;html=1;align=left;verticalAlign=middle;resizable=0;points=[];autosize=1;strokeColor=none;fillColor=none;spacingRight=-9;spacingLeft=3;" parent="1" vertex="1">
          <mxGeometry x="440" y="165" width="50" height="30" as="geometry" />
        </mxCell>
        <mxCell id="4d7obqWmkYfhOyedHUf7-54" value="z&lt;sub&gt;1&lt;/sub&gt;" style="edgeStyle=orthogonalEdgeStyle;rounded=0;orthogonalLoop=1;jettySize=auto;html=1;" parent="1" source="4d7obqWmkYfhOyedHUf7-17" edge="1">
          <mxGeometry x="1" y="10" relative="1" as="geometry">
            <mxPoint x="500" y="280" as="targetPoint" />
            <mxPoint x="-10" y="10" as="offset" />
          </mxGeometry>
        </mxCell>
        <mxCell id="4d7obqWmkYfhOyedHUf7-17" value="S" style="text;html=1;align=center;verticalAlign=middle;resizable=0;points=[];autosize=1;strokeColor=none;fillColor=none;spacingRight=3;spacingLeft=3;" parent="1" vertex="1">
          <mxGeometry x="485" y="210" width="30" height="30" as="geometry" />
        </mxCell>
        <mxCell id="4d7obqWmkYfhOyedHUf7-27" value="FA" style="rounded=0;whiteSpace=wrap;html=1;fontStyle=1" parent="1" vertex="1">
          <mxGeometry x="280" y="120" width="120" height="120" as="geometry" />
        </mxCell>
        <mxCell id="4d7obqWmkYfhOyedHUf7-28" value="CIN" style="text;html=1;align=right;verticalAlign=middle;resizable=0;points=[];autosize=1;strokeColor=none;fillColor=none;spacingRight=3;spacingLeft=-9;" parent="1" vertex="1">
          <mxGeometry x="370" y="165" width="30" height="30" as="geometry" />
        </mxCell>
        <mxCell id="4d7obqWmkYfhOyedHUf7-41" style="edgeStyle=orthogonalEdgeStyle;rounded=0;orthogonalLoop=1;jettySize=auto;html=1;" parent="1" source="4d7obqWmkYfhOyedHUf7-29" target="4d7obqWmkYfhOyedHUf7-34" edge="1">
          <mxGeometry relative="1" as="geometry" />
        </mxCell>
        <mxCell id="4d7obqWmkYfhOyedHUf7-29" value="COUT" style="text;html=1;align=left;verticalAlign=middle;resizable=0;points=[];autosize=1;strokeColor=none;fillColor=none;spacingRight=-9;spacingLeft=3;" parent="1" vertex="1">
          <mxGeometry x="280" y="165" width="50" height="30" as="geometry" />
        </mxCell>
        <mxCell id="4d7obqWmkYfhOyedHUf7-53" value="z&lt;sub&gt;2&lt;/sub&gt;" style="edgeStyle=orthogonalEdgeStyle;rounded=0;orthogonalLoop=1;jettySize=auto;html=1;" parent="1" source="4d7obqWmkYfhOyedHUf7-30" edge="1">
          <mxGeometry x="1" y="10" relative="1" as="geometry">
            <mxPoint x="340" y="280" as="targetPoint" />
            <mxPoint x="-10" y="10" as="offset" />
          </mxGeometry>
        </mxCell>
        <mxCell id="4d7obqWmkYfhOyedHUf7-30" value="S" style="text;html=1;align=center;verticalAlign=middle;resizable=0;points=[];autosize=1;strokeColor=none;fillColor=none;spacingRight=3;spacingLeft=3;" parent="1" vertex="1">
          <mxGeometry x="325" y="210" width="30" height="30" as="geometry" />
        </mxCell>
        <mxCell id="4d7obqWmkYfhOyedHUf7-33" value="FA" style="rounded=0;whiteSpace=wrap;html=1;fontStyle=1" parent="1" vertex="1">
          <mxGeometry x="120" y="120" width="120" height="120" as="geometry" />
        </mxCell>
        <mxCell id="4d7obqWmkYfhOyedHUf7-34" value="CIN" style="text;html=1;align=right;verticalAlign=middle;resizable=0;points=[];autosize=1;strokeColor=none;fillColor=none;spacingRight=3;spacingLeft=-9;" parent="1" vertex="1">
          <mxGeometry x="210" y="165" width="30" height="30" as="geometry" />
        </mxCell>
        <mxCell id="4d7obqWmkYfhOyedHUf7-42" value="COUT" style="edgeStyle=orthogonalEdgeStyle;rounded=0;orthogonalLoop=1;jettySize=auto;html=1;align=right;" parent="1" source="4d7obqWmkYfhOyedHUf7-35" edge="1">
          <mxGeometry x="1" relative="1" as="geometry">
            <mxPoint x="80" y="180" as="targetPoint" />
            <mxPoint as="offset" />
          </mxGeometry>
        </mxCell>
        <mxCell id="4d7obqWmkYfhOyedHUf7-35" value="COUT" style="text;html=1;align=left;verticalAlign=middle;resizable=0;points=[];autosize=1;strokeColor=none;fillColor=none;spacingRight=-9;spacingLeft=3;" parent="1" vertex="1">
          <mxGeometry x="120" y="165" width="50" height="30" as="geometry" />
        </mxCell>
        <mxCell id="4d7obqWmkYfhOyedHUf7-52" value="z&lt;sub&gt;3&lt;/sub&gt;" style="edgeStyle=orthogonalEdgeStyle;rounded=0;orthogonalLoop=1;jettySize=auto;html=1;" parent="1" source="4d7obqWmkYfhOyedHUf7-36" edge="1">
          <mxGeometry x="1" y="10" relative="1" as="geometry">
            <mxPoint x="180" y="280" as="targetPoint" />
            <mxPoint x="-10" y="10" as="offset" />
          </mxGeometry>
        </mxCell>
        <mxCell id="4d7obqWmkYfhOyedHUf7-36" value="S" style="text;html=1;align=center;verticalAlign=middle;resizable=0;points=[];autosize=1;strokeColor=none;fillColor=none;spacingRight=3;spacingLeft=3;" parent="1" vertex="1">
          <mxGeometry x="165" y="210" width="30" height="30" as="geometry" />
        </mxCell>
        <mxCell id="HGhOWVkYGbcMHyvU4BqC-17" value="y&lt;sub&gt;0&lt;/sub&gt;" style="edgeStyle=orthogonalEdgeStyle;rounded=0;orthogonalLoop=1;jettySize=auto;html=1;entryX=0;entryY=0.5;entryDx=0;entryDy=0;entryPerimeter=0;endArrow=none;endFill=0;" edge="1" parent="1" target="HGhOWVkYGbcMHyvU4BqC-40">
          <mxGeometry x="-1" y="-10" relative="1" as="geometry">
            <mxPoint x="629.76" y="60" as="sourcePoint" />
            <Array as="points" />
            <mxPoint x="10" y="-10" as="offset" />
            <mxPoint x="630" y="70" as="targetPoint" />
          </mxGeometry>
        </mxCell>
        <mxCell id="HGhOWVkYGbcMHyvU4BqC-18" value="B" style="text;html=1;align=center;verticalAlign=middle;resizable=0;points=[];autosize=1;strokeColor=none;fillColor=none;spacingRight=3;spacingLeft=3;" vertex="1" parent="1">
          <mxGeometry x="615" y="120" width="30" height="30" as="geometry" />
        </mxCell>
        <mxCell id="HGhOWVkYGbcMHyvU4BqC-19" value="x&lt;sub&gt;0&lt;/sub&gt;" style="edgeStyle=orthogonalEdgeStyle;rounded=0;orthogonalLoop=1;jettySize=auto;html=1;" edge="1" parent="1" target="HGhOWVkYGbcMHyvU4BqC-20">
          <mxGeometry x="-1" y="-10" relative="1" as="geometry">
            <mxPoint x="690" y="60" as="sourcePoint" />
            <Array as="points">
              <mxPoint x="690" y="90" />
              <mxPoint x="690" y="90" />
            </Array>
            <mxPoint x="10" y="-10" as="offset" />
          </mxGeometry>
        </mxCell>
        <mxCell id="HGhOWVkYGbcMHyvU4BqC-20" value="A" style="text;html=1;align=center;verticalAlign=middle;resizable=0;points=[];autosize=1;strokeColor=none;fillColor=none;spacingRight=3;spacingLeft=3;" vertex="1" parent="1">
          <mxGeometry x="675" y="120" width="30" height="30" as="geometry" />
        </mxCell>
        <mxCell id="HGhOWVkYGbcMHyvU4BqC-21" value="y&lt;sub&gt;1&lt;/sub&gt;" style="edgeStyle=orthogonalEdgeStyle;rounded=0;orthogonalLoop=1;jettySize=auto;html=1;entryX=0;entryY=0.5;entryDx=0;entryDy=0;entryPerimeter=0;endArrow=none;endFill=0;" edge="1" parent="1" target="HGhOWVkYGbcMHyvU4BqC-38">
          <mxGeometry x="-1" y="-10" relative="1" as="geometry">
            <mxPoint x="469.89" y="60" as="sourcePoint" />
            <Array as="points" />
            <mxPoint x="10" y="-10" as="offset" />
            <mxPoint x="470" y="70" as="targetPoint" />
          </mxGeometry>
        </mxCell>
        <mxCell id="HGhOWVkYGbcMHyvU4BqC-22" value="B" style="text;html=1;align=center;verticalAlign=middle;resizable=0;points=[];autosize=1;strokeColor=none;fillColor=none;spacingRight=3;spacingLeft=3;" vertex="1" parent="1">
          <mxGeometry x="455" y="120" width="30" height="30" as="geometry" />
        </mxCell>
        <mxCell id="HGhOWVkYGbcMHyvU4BqC-23" value="x&lt;sub&gt;1&lt;/sub&gt;" style="edgeStyle=orthogonalEdgeStyle;rounded=0;orthogonalLoop=1;jettySize=auto;html=1;" edge="1" parent="1" target="HGhOWVkYGbcMHyvU4BqC-24">
          <mxGeometry x="-1" y="-10" relative="1" as="geometry">
            <mxPoint x="530" y="60" as="sourcePoint" />
            <Array as="points">
              <mxPoint x="530" y="90" />
              <mxPoint x="530" y="90" />
            </Array>
            <mxPoint x="10" y="-10" as="offset" />
          </mxGeometry>
        </mxCell>
        <mxCell id="HGhOWVkYGbcMHyvU4BqC-24" value="A" style="text;html=1;align=center;verticalAlign=middle;resizable=0;points=[];autosize=1;strokeColor=none;fillColor=none;spacingRight=3;spacingLeft=3;" vertex="1" parent="1">
          <mxGeometry x="515" y="120" width="30" height="30" as="geometry" />
        </mxCell>
        <mxCell id="HGhOWVkYGbcMHyvU4BqC-25" value="y&lt;sub&gt;2&lt;/sub&gt;" style="edgeStyle=orthogonalEdgeStyle;rounded=0;orthogonalLoop=1;jettySize=auto;html=1;entryX=0;entryY=0.5;entryDx=0;entryDy=0;entryPerimeter=0;endArrow=none;endFill=0;" edge="1" parent="1" target="HGhOWVkYGbcMHyvU4BqC-36">
          <mxGeometry x="-1" y="10" relative="1" as="geometry">
            <mxPoint x="309.9" y="60" as="sourcePoint" />
            <Array as="points">
              <mxPoint x="310" y="70" />
              <mxPoint x="310" y="70" />
            </Array>
            <mxPoint x="-10" y="-10" as="offset" />
            <mxPoint x="310" y="80" as="targetPoint" />
          </mxGeometry>
        </mxCell>
        <mxCell id="HGhOWVkYGbcMHyvU4BqC-26" value="B" style="text;html=1;align=center;verticalAlign=middle;resizable=0;points=[];autosize=1;strokeColor=none;fillColor=none;spacingRight=3;spacingLeft=3;" vertex="1" parent="1">
          <mxGeometry x="295" y="120" width="30" height="30" as="geometry" />
        </mxCell>
        <mxCell id="HGhOWVkYGbcMHyvU4BqC-27" value="x&lt;sub&gt;2&lt;/sub&gt;" style="edgeStyle=orthogonalEdgeStyle;rounded=0;orthogonalLoop=1;jettySize=auto;html=1;" edge="1" parent="1" target="HGhOWVkYGbcMHyvU4BqC-28">
          <mxGeometry x="-1" y="10" relative="1" as="geometry">
            <mxPoint x="370" y="60" as="sourcePoint" />
            <Array as="points">
              <mxPoint x="370" y="101" />
              <mxPoint x="370" y="101" />
            </Array>
            <mxPoint x="-10" y="-10" as="offset" />
          </mxGeometry>
        </mxCell>
        <mxCell id="HGhOWVkYGbcMHyvU4BqC-28" value="A" style="text;html=1;align=center;verticalAlign=middle;resizable=0;points=[];autosize=1;strokeColor=none;fillColor=none;spacingRight=3;spacingLeft=3;" vertex="1" parent="1">
          <mxGeometry x="355" y="120" width="30" height="30" as="geometry" />
        </mxCell>
        <mxCell id="HGhOWVkYGbcMHyvU4BqC-29" value="y&lt;sub&gt;3&lt;/sub&gt;" style="edgeStyle=orthogonalEdgeStyle;rounded=0;orthogonalLoop=1;jettySize=auto;html=1;entryX=0;entryY=0.5;entryDx=0;entryDy=0;entryPerimeter=0;endArrow=none;endFill=0;" edge="1" parent="1" target="HGhOWVkYGbcMHyvU4BqC-33">
          <mxGeometry x="-1" y="10" relative="1" as="geometry">
            <mxPoint x="150" y="60" as="sourcePoint" />
            <Array as="points">
              <mxPoint x="150" y="70" />
              <mxPoint x="150" y="70" />
            </Array>
            <mxPoint x="-10" y="-10" as="offset" />
            <mxPoint x="149.89999999999995" y="70" as="targetPoint" />
          </mxGeometry>
        </mxCell>
        <mxCell id="HGhOWVkYGbcMHyvU4BqC-30" value="B" style="text;html=1;align=center;verticalAlign=middle;resizable=0;points=[];autosize=1;strokeColor=none;fillColor=none;spacingRight=3;spacingLeft=3;" vertex="1" parent="1">
          <mxGeometry x="135" y="120" width="30" height="30" as="geometry" />
        </mxCell>
        <mxCell id="HGhOWVkYGbcMHyvU4BqC-31" value="x&lt;sub&gt;3&lt;/sub&gt;" style="edgeStyle=orthogonalEdgeStyle;rounded=0;orthogonalLoop=1;jettySize=auto;html=1;" edge="1" parent="1" target="HGhOWVkYGbcMHyvU4BqC-32">
          <mxGeometry x="-1" y="10" relative="1" as="geometry">
            <mxPoint x="210" y="60" as="sourcePoint" />
            <Array as="points">
              <mxPoint x="210" y="101" />
              <mxPoint x="210" y="101" />
            </Array>
            <mxPoint x="-10" y="-10" as="offset" />
          </mxGeometry>
        </mxCell>
        <mxCell id="HGhOWVkYGbcMHyvU4BqC-32" value="A" style="text;html=1;align=center;verticalAlign=middle;resizable=0;points=[];autosize=1;strokeColor=none;fillColor=none;spacingRight=3;spacingLeft=3;" vertex="1" parent="1">
          <mxGeometry x="195" y="120" width="30" height="30" as="geometry" />
        </mxCell>
        <mxCell id="HGhOWVkYGbcMHyvU4BqC-33" value="" style="verticalLabelPosition=bottom;shadow=0;dashed=0;align=center;html=1;verticalAlign=top;shape=mxgraph.electrical.logic_gates.inverter_2;rotation=90;" vertex="1" parent="1">
          <mxGeometry x="135" y="80" width="30" height="20" as="geometry" />
        </mxCell>
        <mxCell id="HGhOWVkYGbcMHyvU4BqC-34" style="edgeStyle=orthogonalEdgeStyle;rounded=0;orthogonalLoop=1;jettySize=auto;html=1;exitX=1;exitY=0.5;exitDx=0;exitDy=0;exitPerimeter=0;entryX=0.499;entryY=0;entryDx=0;entryDy=0;entryPerimeter=0;" edge="1" parent="1" source="HGhOWVkYGbcMHyvU4BqC-33" target="HGhOWVkYGbcMHyvU4BqC-30">
          <mxGeometry relative="1" as="geometry" />
        </mxCell>
        <mxCell id="HGhOWVkYGbcMHyvU4BqC-35" style="edgeStyle=orthogonalEdgeStyle;rounded=0;orthogonalLoop=1;jettySize=auto;html=1;exitX=1;exitY=0.5;exitDx=0;exitDy=0;exitPerimeter=0;" edge="1" parent="1" source="HGhOWVkYGbcMHyvU4BqC-36" target="HGhOWVkYGbcMHyvU4BqC-26">
          <mxGeometry relative="1" as="geometry">
            <Array as="points">
              <mxPoint x="310" y="110" />
              <mxPoint x="310" y="110" />
            </Array>
          </mxGeometry>
        </mxCell>
        <mxCell id="HGhOWVkYGbcMHyvU4BqC-36" value="" style="verticalLabelPosition=bottom;shadow=0;dashed=0;align=center;html=1;verticalAlign=top;shape=mxgraph.electrical.logic_gates.inverter_2;rotation=90;" vertex="1" parent="1">
          <mxGeometry x="295" y="80" width="30" height="20" as="geometry" />
        </mxCell>
        <mxCell id="HGhOWVkYGbcMHyvU4BqC-37" style="edgeStyle=orthogonalEdgeStyle;rounded=0;orthogonalLoop=1;jettySize=auto;html=1;exitX=1;exitY=0.5;exitDx=0;exitDy=0;exitPerimeter=0;" edge="1" parent="1" source="HGhOWVkYGbcMHyvU4BqC-38" target="HGhOWVkYGbcMHyvU4BqC-22">
          <mxGeometry relative="1" as="geometry">
            <Array as="points">
              <mxPoint x="470" y="110" />
              <mxPoint x="470" y="110" />
            </Array>
          </mxGeometry>
        </mxCell>
        <mxCell id="HGhOWVkYGbcMHyvU4BqC-38" value="" style="verticalLabelPosition=bottom;shadow=0;dashed=0;align=center;html=1;verticalAlign=top;shape=mxgraph.electrical.logic_gates.inverter_2;rotation=90;" vertex="1" parent="1">
          <mxGeometry x="455" y="80" width="30" height="20" as="geometry" />
        </mxCell>
        <mxCell id="HGhOWVkYGbcMHyvU4BqC-39" style="edgeStyle=orthogonalEdgeStyle;rounded=0;orthogonalLoop=1;jettySize=auto;html=1;exitX=1;exitY=0.5;exitDx=0;exitDy=0;exitPerimeter=0;" edge="1" parent="1">
          <mxGeometry relative="1" as="geometry">
            <mxPoint x="629.9500000000002" y="105" as="sourcePoint" />
            <mxPoint x="629.9499999999999" y="120" as="targetPoint" />
          </mxGeometry>
        </mxCell>
        <mxCell id="HGhOWVkYGbcMHyvU4BqC-40" value="" style="verticalLabelPosition=bottom;shadow=0;dashed=0;align=center;html=1;verticalAlign=top;shape=mxgraph.electrical.logic_gates.inverter_2;rotation=90;" vertex="1" parent="1">
          <mxGeometry x="615" y="80" width="30" height="20" as="geometry" />
        </mxCell>
      </root>
    </mxGraphModel>
  </diagram>
</mxfile>
